<svg width="300" height="464" viewBox="0 0 300 464" fill="none" xmlns="http://www.w3.org/2000/svg">
<rect x="150" y="100.5" width="179.103" height="179.103" transform="rotate(45 150 100.5)" fill="#FEBD59"/>
<path d="M67.4357 353.5C63.8757 353.5 62.0957 352.313 62.0957 349.94C62.0957 347.567 63.757 346.024 67.0797 345.312L72.4197 344.244C77.1663 343.295 80.7263 341.04 83.0997 337.48C85.473 333.683 87.4903 328.461 89.1517 321.816L144.332 99.316C144.806 96.9427 145.518 95.4 146.468 94.688C147.654 93.976 148.722 93.62 149.672 93.62C150.858 93.62 151.926 93.976 152.876 94.688C154.062 95.4 154.893 96.9427 155.368 99.316L211.616 325.02C213.277 331.665 215.176 336.293 217.312 338.904C219.448 341.515 222.77 343.295 227.28 344.244L232.62 345.312C235.942 346.024 237.604 347.567 237.604 349.94C237.604 352.313 235.824 353.5 232.264 353.5H171.388C168.065 353.5 166.404 352.195 166.404 349.584C166.404 346.973 168.421 345.549 172.456 345.312L179.22 344.6C183.254 344.125 185.746 342.82 186.696 340.684C187.882 338.548 187.882 334.869 186.696 329.648L173.168 274.468C171.744 268.297 167.828 265.212 161.42 265.212H124.04C117.869 265.212 113.953 268.297 112.292 274.468L100.188 322.172C96.6277 335.7 100.188 343.176 110.868 344.6L116.208 345.312C120.242 346.024 122.26 347.448 122.26 349.584C122.26 352.195 120.598 353.5 117.276 353.5H67.4357ZM122.972 254.532H162.132C165.929 254.532 167.472 252.515 166.76 248.48L143.976 153.072H142.196L118.344 248.48C117.632 252.515 119.174 254.532 122.972 254.532Z" fill="black"/>
</svg>
