<svg width="114" height="81" viewBox="0 0 114 81" fill="none" xmlns="http://www.w3.org/2000/svg">
<g id="Logo">
<path id="Vector" d="M8.19587 60.2546C8.22623 60.1938 8.25657 60.1331 8.31728 60.1028C8.34764 60.1028 8.4387 60.1028 8.62083 60.1028H8.92439L9.04581 60.4063C9.22794 60.892 9.65291 62.1366 10.3511 64.14C11.0492 66.1434 11.9902 68.9968 13.1741 72.6091C14.2972 75.9785 14.9043 77.7391 14.9651 77.9212C15.1775 78.4373 15.4204 78.8319 15.6936 79.1658C15.9971 79.4693 16.3917 79.8032 16.9381 80.0764C17.0899 80.1675 17.1506 80.2282 17.1506 80.2889C17.1506 80.3496 16.9685 80.3496 16.6042 80.3496C16.24 80.3496 15.6025 80.3496 14.7222 80.3496H12.051V80.2282C12.051 80.1675 12.0813 80.1068 12.1724 80.0764C12.3849 80.0157 12.5974 79.8943 12.8099 79.8032C13.0223 79.6818 13.2045 79.53 13.3562 79.3176C13.508 79.1051 13.5687 78.9229 13.5991 78.7408C13.5991 78.589 13.5991 78.4373 13.5991 78.2855C13.5991 78.1337 13.5687 77.9819 13.5384 77.7998C13.508 77.648 13.417 77.3141 13.2652 76.8588C13.1134 76.4035 12.9313 75.766 12.6884 75.0071L12.2938 73.7626H4.73539L4.03722 75.8267C3.52119 77.3141 3.21764 78.1944 3.12657 78.4373C3.03551 78.7105 2.9748 78.9229 2.9748 79.0747C2.9748 79.3783 3.09622 79.6515 3.39977 79.8336C3.55155 79.955 3.64261 80.0461 3.64261 80.1675V80.2889H1.82131C0.607102 80.2889 0 80.2889 0 80.2282C0 80.1675 0.151764 80.0764 0.42496 79.8943C0.910642 79.6515 1.27491 79.2872 1.51775 78.8319C1.57846 78.7105 1.69989 78.3765 1.88202 77.8909C2.06415 77.4052 2.33735 76.707 2.6409 75.7964C2.79267 75.3714 3.00516 74.7946 3.248 74.0661C3.52119 73.3376 3.82474 72.4573 4.189 71.3949C4.85681 69.5736 5.43356 67.904 5.97996 66.3863C6.52635 64.8685 7.01203 63.5025 7.437 62.3187C7.67984 61.6812 7.86196 61.1956 7.98339 60.8009C8.1048 60.4367 8.16551 60.2242 8.22622 60.1331L8.19587 60.2546ZM9.07616 64.1704C8.95474 63.7757 8.83332 63.4722 8.77261 63.2597C8.7119 63.0472 8.65119 62.9562 8.62083 62.8955C8.62083 62.8955 8.46907 63.2901 8.19587 64.0489C7.98339 64.6257 7.64949 65.5667 7.19416 66.872C6.73883 68.1772 6.13173 69.8468 5.37285 71.8806C5.13001 72.5484 5.03894 72.8823 5.09965 72.9126C5.13001 72.9126 5.43356 72.9126 6.0103 72.9126C6.58705 72.9126 7.437 72.9126 8.56014 72.9126C10.8064 72.9126 11.9295 72.9126 11.9295 72.9126C11.9295 72.9126 11.8688 72.7001 11.7171 72.2448C11.626 71.9716 11.4742 71.5163 11.2617 70.9092C11.0492 70.3021 10.8064 69.4825 10.4725 68.5111C10.169 67.6005 9.9261 66.7809 9.68326 66.0524C9.44042 65.3239 9.22794 64.6864 9.04581 64.14L9.07616 64.1704Z" fill="#1D1D1B"/>
<path id="Vector_2" d="M22.1537 59.5561C23.3679 59.1615 24.0053 58.949 24.066 58.949C24.066 58.949 24.066 59.4043 24.066 60.406V63.9879C24.066 73.4587 24.0964 78.3155 24.1875 78.5887C24.2482 78.8923 24.3696 79.1048 24.5517 79.2869C24.7035 79.469 24.9767 79.6208 25.2802 79.8029C25.5838 79.9547 25.7659 80.0154 25.8266 80.0154C25.8873 80.0154 25.8873 80.0761 25.8873 80.1672V80.3189H23.2768C21.5466 80.3189 20.6966 80.2886 20.6966 80.1975C20.6966 80.1065 20.8787 80.0761 21.2734 79.8636C21.6073 79.7118 21.8501 79.5601 22.0019 79.4387C22.1537 79.3172 22.2751 79.1958 22.3965 79.0137C22.3965 79.0137 22.3965 78.9833 22.3965 78.953C22.5483 78.7101 22.609 78.2245 22.6393 77.5263C22.6393 77.162 22.6393 76.4031 22.6393 75.2193V61.1649L22.5179 60.8613C22.3662 60.4364 22.0322 60.2239 21.5769 60.2239C21.1216 60.2239 21.0609 60.2542 20.7573 60.3453C20.5752 60.3757 20.4538 60.406 20.3931 60.4364C20.3627 60.4364 20.3324 60.4364 20.2717 60.4364L20.2109 60.2542V60.1025L22.0626 59.465L22.1537 59.5561Z" fill="#1D1D1B"/>
<path id="Vector_3" d="M36.4193 65.6274C37.1175 65.6274 37.7549 65.7185 38.3013 65.8703C38.8477 66.022 39.3941 66.3863 39.9102 66.9327C40.6083 67.6916 41.0636 68.5719 41.3065 69.5736C41.5493 70.5753 41.7011 71.577 41.7315 72.5484C41.7618 73.2769 41.7618 73.7322 41.7315 73.9447L41.6707 74.1876H32.8678V74.309C32.8678 74.3393 32.8678 74.4304 32.8678 74.5822C32.8678 74.734 32.8981 74.8857 32.9588 75.1286C33.0499 75.7053 33.2017 76.2517 33.3838 76.7677C33.5659 77.3141 33.8088 77.7695 34.1427 78.1944C34.4462 78.6194 34.8712 78.9533 35.3265 79.1962C35.8122 79.439 36.3586 79.5908 37.0264 79.5908C38.5138 79.5908 39.6673 78.7105 40.4869 76.9802C40.5476 76.7981 40.6083 76.6463 40.669 76.5553C40.6994 76.4338 40.7601 76.3731 40.7601 76.3124C40.8208 76.1606 40.8512 76.0999 40.8815 76.0999C40.9119 76.0999 41.0333 76.1607 41.2154 76.2517C41.3672 76.3428 41.4583 76.4338 41.4583 76.4946C41.4583 76.5553 41.3672 76.7677 41.1851 77.132C40.6994 78.1944 40.0923 79.0444 39.3638 79.6211C38.6049 80.1979 37.6639 80.5014 36.48 80.5014C35.8729 80.5014 35.4176 80.4407 35.1444 80.3497C33.2017 79.6515 32.0178 77.9212 31.6232 75.1589C31.6232 74.9464 31.5929 74.7036 31.5625 74.3697C31.5625 74.0661 31.5625 73.6715 31.5625 73.2769C31.5625 72.4573 31.5625 71.8502 31.6232 71.4556C31.7446 70.7878 31.8964 70.12 32.1089 69.4522C32.3214 68.7844 32.5946 68.1469 32.9892 67.6005C33.3535 67.0541 33.8391 66.5988 34.3855 66.2345C34.9623 65.8703 35.6301 65.6881 36.4497 65.6881L36.4193 65.6274ZM36.7229 66.3863C35.9943 66.3863 35.3872 66.5988 34.9319 67.0238C34.4462 67.4487 34.082 67.9648 33.7784 68.5719C33.4749 69.179 33.2624 69.8468 33.141 70.545C33.0195 71.2431 32.9285 71.8806 32.9285 72.4573V73.4287H40.3351V73.2769C40.3351 72.6698 40.2744 71.9413 40.2137 71.1521C40.153 70.3628 39.9709 69.6039 39.7584 68.9058C39.5155 68.2076 39.1513 67.6005 38.6959 67.1452C38.2103 66.6595 37.5728 66.4167 36.7532 66.4167L36.7229 66.3863ZM38.8781 58.0387C38.9084 57.978 38.9388 57.9476 38.9995 57.8869C38.9995 57.8869 38.9995 57.8565 38.9995 57.8262C39.0602 57.8565 39.1209 57.8869 39.212 57.9476C39.3031 57.9779 39.3941 58.0387 39.4852 58.069C39.5762 58.1297 39.6977 58.1601 39.8494 58.2511L40.7601 58.6761L40.6083 58.8279C40.5172 58.9493 40.2744 59.2529 39.9102 59.6778C39.5155 60.1028 39.1209 60.5581 38.6959 61.0438C38.271 61.5295 37.8764 61.9545 37.5121 62.3187C37.1478 62.683 36.9657 62.8651 36.905 62.8651C36.905 62.8651 36.8443 62.8348 36.7836 62.8348C36.7229 62.8348 36.6621 62.8044 36.6014 62.774L36.48 62.7133C36.48 62.7133 36.5711 62.4705 36.7836 62.0455C36.9961 61.6206 37.2996 61.0742 37.6032 60.4367C37.9978 59.6778 38.3013 59.1011 38.5138 58.6761C38.7263 58.2815 38.8477 58.0387 38.8477 58.0083L38.8781 58.0387Z" fill="#1D1D1B"/>
<path id="Vector_4" d="M49.8976 60.8009C49.8976 60.7402 49.9583 60.6794 50.0797 60.6794H50.2315V63.0471C50.2011 64.6256 50.2011 65.4452 50.2315 65.5666V65.7184H51.6278C52.5081 65.7184 53.0545 65.7184 53.2366 65.7184H53.4491V66.1737C53.4795 66.3255 53.4491 66.4469 53.2973 66.4773C53.1456 66.5076 52.7813 66.538 52.2046 66.538H50.2315V66.8112C50.2315 66.8719 50.2315 67.054 50.2315 67.3576C50.2315 67.6915 50.2315 68.1164 50.2315 68.6325C50.2315 69.1485 50.2315 69.8163 50.2315 70.5448C50.2315 71.2734 50.2315 72.093 50.2315 73.0036V76.3427C50.2315 77.1926 50.2315 77.739 50.2315 78.0122C50.2618 78.6193 50.3529 78.9836 50.444 79.1657C50.5654 79.3782 50.7171 79.5603 50.9296 79.6514C51.1421 79.7728 51.3546 79.8032 51.5671 79.8032C52.2653 79.7121 52.7813 79.196 53.0848 78.255C53.1455 78.0729 53.1759 77.9818 53.2063 77.9515C53.2063 77.9515 53.2973 77.9211 53.358 77.9515L53.5402 78.0122C53.5705 78.0426 53.5402 78.2247 53.4188 78.5282C53.358 78.68 53.3277 78.8318 53.2973 78.9532C53.267 79.0746 53.2063 79.1961 53.1456 79.2871C52.9331 79.7424 52.5992 80.0764 52.1742 80.2585C51.9313 80.3799 51.6582 80.4406 51.3242 80.4406C50.8386 80.471 50.4136 80.3799 50.0493 80.1978C49.5333 79.9549 49.1994 79.5907 49.0476 79.105C48.9262 78.6496 48.8351 78.1336 48.7744 77.6176C48.7744 77.314 48.7441 76.7676 48.7441 75.8873C48.7441 75.0374 48.7441 73.8839 48.7441 72.4572V66.538H46.9531V65.8702L47.4085 65.6273C47.8334 65.4148 48.1673 65.1416 48.4102 64.8077C48.653 64.5042 48.8958 64.0489 49.1083 63.4418C49.1387 63.3203 49.1994 63.1382 49.2905 62.8954C49.3815 62.6222 49.4422 62.349 49.5333 62.0758C49.594 61.8026 49.6851 61.5294 49.7154 61.2865C49.7761 61.0437 49.8065 60.8616 49.8065 60.7705L49.8976 60.8009Z" fill="#1D1D1B"/>
<path id="Vector_5" d="M60.3782 59.4651L62.0781 58.9187V59.283C62.0781 59.5258 62.0781 59.8294 62.0781 60.2847C62.0781 60.7704 62.0781 61.2864 62.0781 61.8631V68.1163L62.2602 67.752C62.5638 67.1146 62.9887 66.5985 63.4744 66.2039C63.9905 65.8093 64.5976 65.5968 65.3261 65.5968C66.4189 65.5968 67.2384 65.9307 67.8152 66.5682C68.3919 67.2056 68.7562 68.0556 68.908 69.1484C68.908 69.3001 68.9383 69.7858 68.9383 70.5447C68.9383 71.3339 68.9383 72.4874 68.9383 74.0962C68.9383 75.1283 68.9383 75.9783 68.9383 76.5854C68.9383 77.1925 68.9383 77.6478 68.9383 77.8906C68.9383 78.1335 68.9687 78.3459 68.999 78.4977C68.999 78.6799 69.0294 78.8013 69.0901 78.9227C69.3026 79.3477 69.7276 79.7423 70.365 80.0458C70.5472 80.1066 70.6382 80.1976 70.6382 80.228C70.8811 80.2583 70.79 80.2887 70.365 80.319C69.9704 80.319 69.3026 80.319 68.3919 80.319H66.0546C65.8118 80.319 65.66 80.319 65.66 80.228C65.66 80.1369 65.7814 80.0762 66.0546 79.9548C66.5403 79.7423 66.8742 79.5298 67.0563 79.287C67.2688 79.0745 67.3599 78.6799 67.4206 78.1638C67.4206 77.9513 67.4206 77.5264 67.4206 76.7978V73.9445C67.4206 72.0928 67.4206 70.6661 67.3599 69.6948C67.2992 68.7234 67.2385 68.1163 67.1474 67.8431C66.9956 67.4181 66.7224 67.0539 66.3885 66.7807C66.0546 66.5075 65.6296 66.3861 65.1743 66.3861C64.719 66.3861 64.4154 66.5075 64.0815 66.7807C63.7476 67.0235 63.4137 67.3574 63.1405 67.7217C62.8673 68.0859 62.6245 68.4806 62.4424 68.9055C62.2602 69.3305 62.1084 69.6948 62.0477 69.9983C62.0174 70.1197 61.987 70.5143 61.987 71.1214C61.987 71.7589 61.987 72.7303 61.9567 74.0962C61.9567 75.189 61.9567 76.039 61.9567 76.6764C61.9567 77.3139 61.9567 77.7085 61.987 77.921C62.0477 78.4977 62.1692 78.8923 62.3816 79.1655C62.5941 79.4084 62.9584 79.6512 63.5048 79.8941C63.8083 80.0155 63.9601 80.1066 63.9601 80.1976C63.9601 80.2887 63.9601 80.2583 63.869 80.2583L61.2585 80.319H58.5265V80.1976C58.5265 80.1369 58.6783 80.0458 58.9515 79.9244C59.4068 79.7726 59.7407 79.5905 59.9532 79.4084C60.1657 79.2262 60.3175 78.9834 60.4086 78.6799C60.4693 78.5281 60.53 75.614 60.53 69.9376C60.53 64.3523 60.53 61.4078 60.4693 61.0739C60.4086 60.8007 60.3175 60.5882 60.1961 60.4365C60.0443 60.2847 59.8622 60.224 59.589 60.224C59.3158 60.224 59.0729 60.2847 58.6783 60.3757C58.3444 60.4668 58.1926 60.4972 58.1623 60.4972L58.1016 60.3454V60.2847C58.1016 60.224 58.1623 60.1329 58.2837 60.1025C58.3444 60.0722 58.4962 60.0115 58.739 59.9508C58.9819 59.8901 59.3158 59.7686 59.7104 59.6169C59.8015 59.5865 59.8925 59.5562 59.9532 59.5258C60.0139 59.5258 60.105 59.4954 60.1961 59.4347L60.3782 59.4651Z" fill="#1D1D1B"/>
<path id="Vector_6" d="M80.8568 65.6274C81.555 65.6274 82.1924 65.7185 82.7388 65.8703C83.2852 66.0221 83.8316 66.3863 84.3477 66.9327C85.0458 67.6916 85.5012 68.5719 85.744 69.5736C85.9868 70.5753 86.1386 71.577 86.169 72.5484C86.1993 73.2769 86.1993 73.7322 86.169 73.9447L86.1083 74.1876H77.3053V74.309C77.3053 74.3393 77.3053 74.4304 77.3053 74.5822C77.3053 74.734 77.3356 74.8857 77.3963 75.1286C77.4874 75.7053 77.6392 76.2517 77.8213 76.7678C78.0034 77.3141 78.2463 77.7695 78.5802 78.1944C78.8837 78.6194 79.3087 78.9533 79.764 79.1962C80.2497 79.439 80.7961 79.5908 81.4639 79.5908C82.9513 79.5908 84.1048 78.7105 84.9244 76.9802C84.9851 76.7981 85.0458 76.6463 85.1065 76.5553C85.1369 76.4339 85.1976 76.3731 85.1976 76.3124C85.2583 76.1607 85.2887 76.0999 85.319 76.0999C85.3494 76.0999 85.4708 76.1607 85.6529 76.2517C85.8047 76.3428 85.8958 76.4338 85.8958 76.4946C85.8958 76.5553 85.8047 76.7678 85.6226 77.132C85.1369 78.1944 84.5298 79.0444 83.8013 79.6211C83.0424 80.1979 82.1014 80.5014 80.9175 80.5014C80.3104 80.5014 79.8551 80.4407 79.5819 80.3497C77.6392 79.6515 76.4553 77.9213 76.0607 75.1589C76.0607 74.9465 76.0304 74.7036 76 74.3697C76 74.0662 76 73.6715 76 73.2769C76 72.4573 76 71.8502 76.0607 71.4556C76.1821 70.7878 76.3339 70.12 76.5464 69.4522C76.7589 68.7844 77.0321 68.1469 77.4267 67.6005C77.791 67.0541 78.2766 66.5988 78.823 66.2345C79.3998 65.8703 80.0676 65.6881 80.8872 65.6881L80.8568 65.6274ZM81.13 66.3863C80.4015 66.3863 79.7944 66.5988 79.3391 67.0238C78.8534 67.4487 78.4891 67.9648 78.1856 68.5719C77.882 69.179 77.6695 69.8468 77.5481 70.545C77.4267 71.2431 77.3356 71.8806 77.3356 72.4573V73.4287H84.7423V73.2769C84.7423 72.6698 84.6816 71.9413 84.5905 71.1521C84.5298 70.3628 84.3477 69.604 84.1352 68.9058C83.8923 68.2076 83.5281 67.6005 83.0728 67.1452C82.5871 66.6595 81.9496 66.4167 81.13 66.4167V66.3863Z" fill="#1D1D1B"/>
<path id="Vector_7" d="M93.7082 65.8097C94.5582 65.5365 95.0135 65.4151 95.0742 65.4151C95.1349 65.4151 95.1349 65.9918 95.1349 67.1757C95.1349 68.3595 95.1349 69.9987 95.1653 72.1539V76.2519C95.1653 77.2536 95.1653 77.891 95.1653 78.1642C95.1653 78.4678 95.226 78.741 95.2563 78.9231C95.2867 79.1356 95.3777 79.2874 95.4992 79.4391C95.6206 79.5909 95.7723 79.682 95.9545 79.8034C96.1366 79.8945 96.4098 79.9855 96.7134 80.0766C96.8955 80.1373 96.9866 80.198 96.9866 80.2587C96.9866 80.3194 96.1063 80.3801 94.3457 80.3801C92.5851 80.3801 91.7048 80.3498 91.7351 80.2587C91.7351 80.2284 91.8869 80.1373 92.1905 80.0462C92.6154 79.8945 92.919 79.7427 93.1315 79.5606C93.3439 79.3784 93.4654 79.1356 93.5564 78.832C93.6171 78.6803 93.6778 76.95 93.6778 73.702C93.6778 72.0932 93.6778 70.7879 93.6778 69.7862C93.6778 68.7845 93.6779 68.2078 93.6475 68.0256C93.5868 67.4185 93.4047 67.0543 93.1922 66.9025C92.9493 66.7507 92.6761 66.69 92.3422 66.7507C92.0387 66.8114 91.8869 66.8418 91.8565 66.8418C91.8565 66.8418 91.8262 66.7507 91.7958 66.6596V66.5079L93.6778 65.8704L93.7082 65.8097ZM94.2546 59.9512C94.4974 59.9512 94.7403 60.0119 94.9831 60.1637C95.226 60.3154 95.3777 60.4976 95.4688 60.71C95.5902 61.0136 95.6206 61.3172 95.4688 61.6511C95.3777 61.8939 95.226 62.1064 95.0135 62.1974C94.801 62.3189 94.5582 62.3796 94.3153 62.3796C94.0725 62.3796 94.1028 62.3796 94.0118 62.3796C93.9207 62.3796 93.8296 62.3492 93.7386 62.2885C93.3439 62.076 93.1315 61.7725 93.0707 61.3779C93.01 60.9832 93.1315 60.619 93.435 60.3154C93.5868 60.194 93.7082 60.1029 93.7993 60.0422C93.8903 59.9815 94.0421 59.9512 94.2546 59.9512Z" fill="#1D1D1B"/>
<path id="Vector_8" d="M105.995 65.7794C106.147 65.7187 106.298 65.6883 106.511 65.658C106.723 65.658 106.905 65.658 107.148 65.658C108.423 65.658 109.455 65.9919 110.245 66.6293C111.034 67.2668 111.489 68.2685 111.671 69.6041C111.671 69.7255 111.702 70.2416 111.702 71.1219C111.702 72.0022 111.702 73.186 111.702 74.6734C111.702 76.1608 111.702 77.2536 111.702 78.0428C111.702 78.8017 111.702 79.2267 111.732 79.3177C111.762 79.4695 111.853 79.591 112.005 79.6517C112.157 79.7427 112.278 79.7731 112.46 79.7731C112.643 79.7731 112.703 79.7427 112.885 79.6517C113.007 79.6213 113.128 79.5302 113.28 79.3785C113.432 79.2267 113.523 79.1053 113.584 79.0142C113.644 78.9535 113.675 78.8928 113.705 78.8928C113.705 78.8928 113.766 78.8928 113.857 78.9535C113.887 78.9838 113.918 79.0142 113.918 79.0749C113.918 79.1356 113.887 79.1963 113.796 79.3481C113.644 79.7124 113.401 79.9856 113.098 80.1677C112.794 80.3498 112.43 80.4409 112.066 80.4409C111.55 80.4105 111.155 80.2588 110.882 80.0159C110.487 79.7124 110.305 79.1053 110.305 78.2553V77.6786L109.971 78.0428C109.425 78.7106 108.727 79.257 107.907 79.7427C107.057 80.2284 106.207 80.4712 105.327 80.4712C104.447 80.4712 104.174 80.3195 103.597 80.0463C103.02 79.7731 102.625 79.3481 102.383 78.7714C102.231 78.3767 102.14 77.9214 102.109 77.4054C102.109 76.8893 102.17 76.4037 102.322 75.9787C102.565 75.2198 103.111 74.5824 103.9 74.0663C104.234 73.8235 104.841 73.4896 105.661 73.0343C106.481 72.5789 107.573 72.0325 108.939 71.3951C109.243 71.2433 109.486 71.1219 109.668 71.0005C109.85 70.879 109.971 70.8183 110.062 70.7576C110.153 70.6666 110.214 70.6058 110.245 70.5755C110.245 70.5451 110.275 70.4541 110.275 70.3327C110.275 69.7559 110.214 69.2399 110.093 68.7845C109.971 68.2989 109.789 67.9042 109.516 67.54C109.243 67.2061 108.879 66.9329 108.454 66.7204C108.029 66.5079 107.513 66.4168 106.905 66.4168C106.298 66.4168 105.6 66.599 105.084 66.9632C104.568 67.3275 104.174 67.8435 103.9 68.5417C103.688 69.0577 103.597 69.4827 103.597 69.847C103.597 70.2112 103.597 70.1202 103.536 70.2416C103.475 70.363 103.445 70.4844 103.354 70.5755C103.233 70.6969 103.141 70.7273 103.02 70.7273C102.838 70.7273 102.686 70.6362 102.534 70.4541C102.383 70.2719 102.322 70.0595 102.322 69.8166C102.322 69.3309 102.413 68.8452 102.625 68.4203C102.838 67.9649 103.111 67.5703 103.445 67.2061C103.779 66.8418 104.174 66.5383 104.598 66.2651C105.023 66.0222 105.479 65.8401 105.934 65.7187L105.995 65.7794ZM110.245 76.0698C110.305 75.8573 110.336 75.068 110.336 73.6717V71.5772L109.789 71.8808C109.637 71.9718 109.364 72.1236 109.03 72.3057C108.696 72.4879 108.241 72.7307 107.664 73.0343C107.057 73.3378 106.572 73.611 106.147 73.8538C105.752 74.0967 105.448 74.2485 105.236 74.4002C104.841 74.6431 104.507 74.9163 104.174 75.2805C103.627 75.8573 103.384 76.6769 103.475 77.7089C103.506 78.4375 103.688 78.9535 104.022 79.257C104.356 79.5606 104.902 79.7124 105.661 79.7124C106.42 79.7124 106.632 79.6213 107.148 79.4088C107.634 79.1963 108.089 78.9535 108.514 78.6196C108.939 78.2857 109.304 77.9214 109.607 77.4661C109.911 77.0411 110.123 76.5858 110.275 76.1001L110.245 76.0698Z" fill="#1D1D1B"/>
<path id="Vector_9" d="M81.5297 25.0773L56.9531 0.500732L32.3765 25.0773L56.9531 49.654L81.5297 25.0773Z" fill="#FEBD59"/>
<path id="Vector_10" d="M56.092 1.39511C56.183 1.21298 56.2741 1.12191 56.3652 1.0612C56.4562 1.03085 56.6991 1.00049 57.0937 1.00049H57.8222L58.0954 1.72902C58.5204 2.85216 59.5828 5.8573 61.222 10.7141C62.8612 15.5709 65.1378 22.3401 68.0215 31.052C70.7231 39.1265 72.1802 43.3762 72.3623 43.7708C72.848 44.985 73.4247 45.9867 74.1229 46.7456C74.8211 47.5045 75.7924 48.233 77.0673 48.9312C77.4316 49.1437 77.5834 49.3258 77.5834 49.4472C77.5834 49.5686 77.1584 49.599 76.2781 49.599C75.3978 49.599 73.88 49.6293 71.7552 49.6293H65.3199V49.3562C65.3199 49.174 65.411 49.083 65.5931 49.0222C66.1091 48.8401 66.6252 48.6276 67.1412 48.3241C67.6573 48.0509 68.0822 47.6563 68.4161 47.1706C68.7804 46.6545 68.9625 46.1992 68.9929 45.8046C69.0232 45.4403 69.0536 45.1064 69.0232 44.7118C69.0232 44.3476 68.9322 43.9529 68.8715 43.5583C68.7804 43.1637 68.5679 42.4048 68.234 41.2817C67.9001 40.1586 67.4448 38.7015 66.8377 36.8498L65.927 33.8447H47.7747L46.0748 38.8229C44.8606 42.4048 44.1321 44.4993 43.9196 45.1064C43.7071 45.7743 43.5857 46.2599 43.5857 46.6242C43.5553 47.3527 43.8892 47.9902 44.6481 48.4455C45.0427 48.7187 45.2249 48.9615 45.2249 49.2347V49.5686H40.8234C37.9093 49.599 36.4219 49.5686 36.4219 49.4472C36.4219 49.3258 36.7861 49.0526 37.4843 48.658C38.6074 48.0812 39.4877 47.2313 40.0948 46.1082C40.2163 45.8046 40.5198 45.0457 40.9751 43.8315C41.4305 42.6173 42.0376 40.9478 42.7661 38.8229C43.1303 37.8212 43.616 36.4552 44.2535 34.6946C44.8909 32.934 45.6498 30.8092 46.5301 28.2594C48.1086 23.8882 49.5353 19.8814 50.8709 16.2691C52.1762 12.6265 53.3297 9.3785 54.3314 6.49476C54.9081 4.97701 55.3331 3.76281 55.6063 2.88251C55.8795 2.00221 56.0616 1.48617 56.1527 1.30404L56.092 1.39511ZM58.2472 10.8355C57.9436 9.86418 57.7008 9.16601 57.5187 8.68033C57.3365 8.19465 57.2455 7.92145 57.1847 7.83038C57.1544 7.83038 56.7901 8.74104 56.1223 10.5927C55.6366 11.989 54.8474 14.2657 53.7243 17.3922C52.6011 20.5188 51.1441 24.5257 49.3531 29.4129C48.7764 30.9913 48.5639 31.8109 48.6853 31.902C48.7764 31.902 49.5049 31.902 50.8709 31.9323C52.2369 31.9323 54.301 31.9627 57.0026 31.9627C62.3755 31.993 65.0771 31.9627 65.0771 31.902C65.0771 31.9323 64.895 31.3859 64.561 30.2628C64.3486 29.595 63.9843 28.5326 63.4683 27.0452C62.9522 25.5578 62.3451 23.6454 61.5862 21.2777C60.8881 19.0921 60.2506 17.1494 59.6739 15.4192C59.0971 13.6889 58.6114 12.1712 58.1561 10.8659L58.2472 10.8355Z" fill="#1D1D1B"/>
</g>
</svg>
